<svg width="68" height="24" viewBox="0 0 68 24" fill="none" xmlns="http://www.w3.org/2000/svg">
<path d="M7.99973 18.0361C-5.33333 10.6667 3.99999 2.66667 7.99973 7.72537C12 2.66666 21.3333 10.6667 7.99973 18.0361Z" stroke="#FB3535" stroke-width="1.8"/>
<path d="M21.312 6.832V13.744C21.312 14.5013 21.5093 15.0827 21.904 15.488C22.2987 15.8827 22.8533 16.08 23.568 16.08C24.2933 16.08 24.8533 15.8827 25.248 15.488C25.6427 15.0827 25.84 14.5013 25.84 13.744V6.832H28.096V13.728C28.096 14.6773 27.888 15.4827 27.472 16.144C27.0667 16.7947 26.5173 17.2853 25.824 17.616C25.1413 17.9467 24.3787 18.112 23.536 18.112C22.704 18.112 21.9467 17.9467 21.264 17.616C20.592 17.2853 20.0587 16.7947 19.664 16.144C19.2693 15.4827 19.072 14.6773 19.072 13.728V6.832H21.312ZM35.1723 9.008C36.2283 9.008 37.0816 9.344 37.7323 10.016C38.3829 10.6773 38.7083 11.6053 38.7083 12.8V18H36.4683V13.104C36.4683 12.4 36.2923 11.8613 35.9403 11.488C35.5883 11.104 35.1083 10.912 34.5003 10.912C33.8816 10.912 33.3909 11.104 33.0283 11.488C32.6763 11.8613 32.5003 12.4 32.5003 13.104V18H30.2603V9.136H32.5003V10.24C32.7989 9.856 33.1776 9.55733 33.6363 9.344C34.1056 9.12 34.6176 9.008 35.1723 9.008ZM43.0784 6.16V18H40.8384V6.16H43.0784ZM46.4275 8.08C46.0328 8.08 45.7022 7.95733 45.4355 7.712C45.1795 7.456 45.0515 7.14133 45.0515 6.768C45.0515 6.39467 45.1795 6.08533 45.4355 5.84C45.7022 5.584 46.0328 5.456 46.4275 5.456C46.8222 5.456 47.1475 5.584 47.4035 5.84C47.6702 6.08533 47.8035 6.39467 47.8035 6.768C47.8035 7.14133 47.6702 7.456 47.4035 7.712C47.1475 7.95733 46.8222 8.08 46.4275 8.08ZM47.5315 9.136V18H45.2915V9.136H47.5315ZM54.9926 18L51.9846 14.224V18H49.7446V6.16H51.9846V12.896L54.9606 9.136H57.8726L53.9686 13.584L57.9046 18H54.9926ZM67.3284 13.376C67.3284 13.696 67.307 13.984 67.2644 14.24H60.7844C60.8377 14.88 61.0617 15.3813 61.4564 15.744C61.851 16.1067 62.3364 16.288 62.9124 16.288C63.7444 16.288 64.3364 15.9307 64.6884 15.216H67.1044C66.8484 16.0693 66.3577 16.7733 65.6324 17.328C64.907 17.872 64.0164 18.144 62.9604 18.144C62.107 18.144 61.339 17.9573 60.6564 17.584C59.9844 17.2 59.4564 16.6613 59.0724 15.968C58.699 15.2747 58.5124 14.4747 58.5124 13.568C58.5124 12.6507 58.699 11.8453 59.0724 11.152C59.4457 10.4587 59.9684 9.92533 60.6404 9.552C61.3124 9.17867 62.0857 8.992 62.9604 8.992C63.803 8.992 64.555 9.17333 65.2164 9.536C65.8884 9.89867 66.4057 10.416 66.7684 11.088C67.1417 11.7493 67.3284 12.512 67.3284 13.376ZM65.0084 12.736C64.9977 12.16 64.7897 11.7013 64.3844 11.36C63.979 11.008 63.483 10.832 62.8964 10.832C62.3417 10.832 61.8724 11.0027 61.4884 11.344C61.115 11.6747 60.8857 12.1387 60.8004 12.736H65.0084Z" fill="white"/>
</svg>
